<?xml version="1.0" encoding="UTF-8" standalone="no"?>
<!DOCTYPE svg PUBLIC "-//W3C//DTD SVG 1.1//EN" "http://www.w3.org/Graphics/SVG/1.1/DTD/svg11.dtd">
<svg width="100%" height="100%" viewBox="0 0 190 60" version="1.1" xmlns="http://www.w3.org/2000/svg" xmlns:xlink="http://www.w3.org/1999/xlink" xml:space="preserve" xmlns:serif="http://www.serif.com/" style="fill-rule:evenodd;clip-rule:evenodd;stroke-linejoin:round;stroke-miterlimit:2;">
    <g transform="matrix(1.533396,0,0,1.533396,-49.632946,-43.192251)">
        <g transform="matrix(0.976147,0,0,0.976147,2.249861,-2.713191)">
            <path d="M154.393,46.593L150.189,46.593L150.189,35.819L151.175,35.819L151.175,45.607L154.393,45.607L154.393,46.593Z" style="fill:rgb(0,109,149);fill-rule:nonzero;"/>
        </g>
        <g transform="matrix(0.976147,0,0,0.976147,2.249861,-2.713191)">
            <path d="M155.853,49.388L146.772,49.388L146.772,38.614L147.758,38.614L147.758,48.402L155.853,48.402L155.853,49.388Z" style="fill:rgb(0,109,149);fill-rule:nonzero;"/>
        </g>
        <g transform="matrix(0.976147,0,0,0.976147,2.249861,-2.713191)">
            <path d="M146.809,49.079L141.764,36.715L139.011,36.715L134.228,48.702L133.949,49.4L133.278,49.4L133.278,36.035L134.264,36.035L134.264,45.96L138.222,36.041L138.347,35.729L142.426,35.729L142.552,36.037L147.721,48.71L146.809,49.079Z" style="fill:rgb(0,109,149);fill-rule:nonzero;"/>
        </g>
        <g transform="matrix(0.976147,0,0,0.976147,2.249861,-2.713191)">
            <path d="M129.925,49.4L129.925,41.751L127.122,44.933L126.775,45.327L126.404,44.956L123.425,41.977L123.425,63.867L152.038,63.867L152.038,57.341L153.024,57.341L153.024,64.853L122.439,64.853L122.439,39.597L123.281,40.439L126.73,43.888L130.048,40.121L130.911,39.141L130.911,49.4L129.925,49.4Z" style="fill:rgb(0,109,149);fill-rule:nonzero;"/>
        </g>
        <g transform="matrix(0.976147,0,0,0.976147,2.249861,-2.713191)">
            <path d="M156.223,57.279L156.223,68.207L119.364,68.207L119.364,38.799L120.35,38.799L120.35,67.221L155.237,67.221L155.237,57.279L156.223,57.279Z" style="fill:rgb(0,109,149);fill-rule:nonzero;"/>
        </g>
        <g transform="matrix(0.976147,0,0,0.976147,2.249861,-2.713191)">
            <path d="M123.466,35.819L126.748,39.319L129.975,35.819L131.314,35.819L127.115,40.374L126.758,40.763L126.395,40.378L122.118,35.819L123.466,35.819Z" style="fill:rgb(0,109,149);fill-rule:nonzero;"/>
        </g>
        <g transform="matrix(0.976147,0,0,0.976147,2.249861,-2.713191)">
            <path d="M116.259,49.4L116.259,41.79L113.187,44.861L112.837,45.212L112.488,44.858L109.604,41.926L109.604,49.4L108.618,49.4L108.618,39.522L109.462,40.379L112.84,43.814L116.403,40.251L117.244,39.409L117.244,49.4L116.259,49.4Z" style="fill:rgb(0,109,149);fill-rule:nonzero;"/>
        </g>
        <g transform="matrix(0.976147,0,0,0.976147,2.249861,-2.713191)">
            <path d="M106.56,38.736L106.56,49.4L105.553,49.4L100.394,36.682L82.96,36.682L82.96,35.696L101.057,35.696L101.182,36.004L105.574,46.833L105.574,38.736L106.56,38.736Z" style="fill:rgb(0,109,149);fill-rule:nonzero;"/>
        </g>
        <g transform="matrix(0.976147,0,0,0.976147,2.249861,-2.713191)">
            <path d="M101.746,49.4L99.038,42.588L96.207,49.4L95.142,49.4L98.594,41.094L99.058,39.978L99.504,41.102L102.802,49.4L101.746,49.4Z" style="fill:rgb(0,109,149);fill-rule:nonzero;"/>
        </g>
        <g transform="matrix(0.976147,0,0,0.976147,2.249861,-2.713191)">
            <path d="M136.632,49.4L140.026,41.098L140.481,39.983L140.936,41.098L144.325,49.4L143.262,49.4L140.479,42.582L137.692,49.4L136.632,49.4Z" style="fill:rgb(0,109,149);fill-rule:nonzero;"/>
        </g>
        <g transform="matrix(0.976147,0,0,0.976147,2.249861,-2.713191)">
            <path d="M95.132,52.65L95.132,63.835L106.072,63.835L106.072,56.256L116.935,56.256L116.935,68.362L94.452,68.362L94.452,67.375L115.948,67.375L115.948,57.243L107.058,57.243L107.058,64.821L94.145,64.821L94.145,52.65L95.132,52.65Z" style="fill:rgb(0,109,149);fill-rule:nonzero;"/>
        </g>
        <g transform="matrix(0.976147,0,0,0.976147,2.249861,-2.713191)">
            <path d="M109.178,64.514L109.178,59.549L113.953,59.549L113.953,64.514L112.967,64.514L112.967,60.535L110.164,60.535L110.164,64.514L109.178,64.514Z" style="fill:rgb(0,109,149);fill-rule:nonzero;"/>
        </g>
        <g transform="matrix(0.976147,0,0,0.976147,2.249861,-2.713191)">
            <path d="M92.088,52.587L92.088,68.299L85.884,68.299L85.884,57.619L86.869,57.619L86.869,67.313L91.101,67.313L91.101,52.587L92.088,52.587Z" style="fill:rgb(0,109,149);fill-rule:nonzero;"/>
        </g>
        <g transform="matrix(0.976147,0,0,0.976147,2.249861,-2.713191)">
            <rect x="82.716" y="57.619" width="0.986" height="10.311" style="fill:rgb(0,109,149);fill-rule:nonzero;"/>
        </g>
        <g transform="matrix(0.976147,0,0,0.976147,2.249861,-2.713191)">
            <path d="M83.022,38.304L97.452,38.304L97.136,39L92.423,49.4L91.343,49.4L95.924,39.291L83.022,39.291L83.022,38.304Z" style="fill:rgb(0,109,149);fill-rule:nonzero;"/>
        </g>
        <g transform="matrix(0.976147,0,0,0.976147,2.249861,-2.713191)">
            <rect x="91.039" y="40.723" width="0.986" height="8.677" style="fill:rgb(0,109,149);fill-rule:nonzero;"/>
        </g>
        <g transform="matrix(0.976147,0,0,0.976147,2.249861,-2.713191)">
            <path d="M87.747,49.4L87.747,41.837L87.749,41.837L87.749,41.673C87.751,41.192 87.752,41.005 87.445,40.542C87.298,40.321 87.114,40.11 86.901,39.909C86.68,39.702 86.426,39.503 86.146,39.312L86.7,38.5C87.02,38.717 87.314,38.948 87.575,39.193C87.843,39.445 88.076,39.713 88.266,39.999C88.735,40.708 88.734,40.979 88.732,41.675L88.731,41.837L88.733,41.837L88.733,49.4L87.747,49.4Z" style="fill:rgb(0,109,149);fill-rule:nonzero;"/>
        </g>
        <g transform="matrix(0.976147,0,0,0.976147,2.249861,-2.713191)">
            <path d="M117.366,35.819L113.945,39.489L112.967,40.616L112.607,40.236L108.428,35.819L109.778,35.819L112.96,39.182L116.095,35.819L117.366,35.819Z" style="fill:rgb(0,109,149);fill-rule:nonzero;"/>
        </g>
        <g transform="matrix(0.976147,0,0,0.976147,2.249861,-2.713191)">
            <rect x="146.823" y="35.783" width="0.986" height="1.413" style="fill:rgb(0,109,149);fill-rule:nonzero;"/>
        </g>
        <g transform="matrix(0.976147,0,0,0.976147,2.249861,-2.713191)">
            <rect x="155.267" y="45.612" width="1.009" height="0.987" style="fill:rgb(0,109,149);fill-rule:nonzero;"/>
        </g>
        <g transform="matrix(0.976147,0,0,0.976147,2.249861,-2.713191)">
            <path d="M141.811,57.195L139.346,57.195L140.657,59.662L140.657,59.663C140.663,59.674 140.68,59.69 140.702,59.704L140.701,59.705C140.711,59.712 140.706,59.716 140.711,59.716L143.175,59.716L141.865,57.25L141.865,57.248C141.859,57.236 141.842,57.221 141.821,57.207L141.82,57.207C141.808,57.2 141.817,57.195 141.811,57.195ZM138.91,56.327L141.811,56.327C141.974,56.327 142.148,56.387 142.294,56.482L142.294,56.483C142.43,56.573 142.554,56.7 142.63,56.844L142.63,56.843L144.128,59.662C144.186,59.772 144.214,59.888 144.215,59.996L144.217,59.998C144.217,60.103 144.19,60.201 144.142,60.288L144.14,60.291C144.087,60.383 144.01,60.459 143.91,60.512C143.822,60.558 143.721,60.584 143.611,60.584L140.711,60.584C140.548,60.584 140.376,60.525 140.229,60.429L140.227,60.429C140.092,60.34 139.969,60.212 139.892,60.068L139.891,60.068L138.394,57.25C138.334,57.137 138.305,57.021 138.305,56.913C138.305,56.809 138.332,56.71 138.38,56.624L138.382,56.62C138.435,56.528 138.512,56.452 138.612,56.4C138.7,56.353 138.8,56.327 138.91,56.327Z" style="fill:rgb(0,149,218);fill-rule:nonzero;"/>
        </g>
        <g transform="matrix(0.976147,0,0,0.976147,2.249861,-2.713191)">
            <path d="M135.598,57.195L133.134,57.195L134.445,59.662L134.445,59.663C134.45,59.674 134.468,59.69 134.49,59.704L134.489,59.705C134.498,59.712 134.494,59.716 134.499,59.716L136.963,59.716L135.653,57.25L135.653,57.248C135.646,57.236 135.63,57.221 135.609,57.207L135.607,57.207C135.596,57.2 135.605,57.195 135.598,57.195ZM132.698,56.327L135.598,56.327C135.762,56.327 135.936,56.387 136.082,56.482L136.081,56.483C136.218,56.573 136.341,56.7 136.417,56.844L136.418,56.843L137.916,59.662C137.974,59.772 138.002,59.888 138.003,59.996L138.004,59.998C138.004,60.103 137.978,60.201 137.929,60.288L137.927,60.291C137.874,60.383 137.797,60.459 137.698,60.512C137.609,60.558 137.508,60.584 137.399,60.584L134.499,60.584C134.336,60.584 134.164,60.525 134.017,60.429L134.015,60.429C133.88,60.34 133.757,60.212 133.68,60.068L133.679,60.068L132.182,57.25C132.122,57.137 132.093,57.021 132.093,56.913C132.093,56.809 132.12,56.71 132.168,56.624L132.17,56.62C132.222,56.528 132.3,56.452 132.399,56.4C132.488,56.353 132.588,56.327 132.698,56.327Z" style="fill:rgb(0,149,218);fill-rule:nonzero;"/>
        </g>
        <g transform="matrix(0.976147,0,0,0.976147,2.249861,-2.713191)">
            <path d="M37.629,46.334L32.97,38.182L32.368,37.128L47.154,37.128L47.358,37.48L52.065,45.633L52.675,46.689L37.832,46.689L37.629,46.334ZM34.794,38.537L38.647,45.28L50.239,45.28L46.345,38.537L34.794,38.537Z" style="fill:rgb(0,149,218);fill-rule:nonzero;"/>
        </g>
        <g transform="matrix(0.976147,0,0,0.976147,2.249861,-2.713191)">
            <path d="M68.635,45.28L72.489,38.537L60.938,38.537L57.044,45.28L68.635,45.28ZM74.313,38.182L69.654,46.334L69.451,46.689L54.608,46.689L55.218,45.633L59.925,37.48L60.129,37.128L74.915,37.128L74.313,38.182Z" style="fill:rgb(0,109,149);fill-rule:nonzero;"/>
        </g>
        <g transform="matrix(0.976147,0,0,0.976147,2.249861,-2.713191)">
            <path d="M56.431,46.34L55.562,47.823L66.332,66.08L66.959,67.141L55.639,67.141L55.434,66.798L49.284,56.486L49.071,56.129L49.282,55.771L54.142,47.471L54.171,47.422L55.221,45.63L56.431,46.34ZM54.749,49.212L50.702,56.122L56.434,65.733L64.495,65.733L54.749,49.212Z" style="fill:rgb(0,109,149);fill-rule:nonzero;"/>
        </g>
        <g transform="matrix(0.976147,0,0,0.976147,2.249861,-2.713191)">
            <path d="M119.938,37.983L119.469,37.162L119.408,37.055L120.899,37.055L120.919,37.091L121.393,37.913L121.455,38.019L119.959,38.019L119.938,37.983ZM119.653,37.197L120.041,37.877L121.209,37.877L120.817,37.197L119.653,37.197Z" style="fill:rgb(0,109,149);fill-rule:nonzero;"/>
        </g>
        <g transform="matrix(0.976147,0,0,0.976147,2.249861,-2.713191)">
            <path d="M120.278,35.816L120.666,35.136L119.502,35.136L119.109,35.816L120.278,35.816ZM120.85,35.1L120.38,35.922L120.36,35.958L118.864,35.958L118.925,35.851L119.4,35.029L119.42,34.994L120.91,34.994L120.85,35.1Z" style="fill:rgb(0,109,149);fill-rule:nonzero;"/>
        </g>
        <g transform="matrix(0.976147,0,0,0.976147,2.249861,-2.713191)">
            <path d="M119.048,35.922L118.96,36.072L120.046,37.912L120.109,38.019L118.968,38.019L118.947,37.984L118.327,36.945L118.306,36.909L118.327,36.873L118.817,36.036L118.82,36.032L118.926,35.851L119.048,35.922ZM118.878,36.212L118.47,36.908L119.048,37.877L119.86,37.877L118.878,36.212Z" style="fill:rgb(0,109,149);fill-rule:nonzero;"/>
        </g>
        <g transform="matrix(0.976147,0,0,0.976147,2.249861,-2.713191)">
            <path d="M119.461,34.994L120.788,34.994L120.319,35.957L118.986,35.887L118.773,36.111L118.923,36.187L119.469,37.161L120.858,37.056L121.332,38.019L118.957,38.002L118.328,36.945L119.461,34.994Z" style="fill:rgb(0,109,149);"/>
        </g>
    </g>
</svg>
